# xmcd
#
# Track frame offsets:
#	150
#	28304
#	52171
#	82743
#	102136
#	130079
#	154002
#	177166
#	208088
#	234012
#	262676
#	283631
#	305619
#
# Disc length: 4465 seconds
#
# Revision: 0
# Processed by: cddbd v1.5.2PL0 Copyright (c) Steve Scherf et al.
# Submitted via: audiograbber 1.83.01
#
DISCID=a3116f0d
DTITLE=MegaJump Vol. 1 CD 2 - MegaJump Vol. 1 CD 2
DYEAR=2007
DGENRE=
TTITLE0=Dj Klubbingman - Never stop this feeling
TTITLE1=Dan Winter - Dare me
TTITLE2=Patrick Bunton - Blowjob better like no job
TTITLE3=Bangbros - Bangerland
TTITLE4=D - Style - Gone
TTITLE5=Raveboy - Get up
TTITLE6=DJ Analyzer - We belong
TTITLE7=Andrew Spencer - Zombie
TTITLE8=Jumpheadz - Run
TTITLE9=Grey T. - Get louder
TTITLE10=Aaron D. - Nowhere to hide
TTITLE11=Andy Jay Puwell - Triple X
TTITLE12=R. Cee and Tecay -  Are you ready
EXTD=
EXTT0=
EXTT1=
EXTT2=
EXTT3=
EXTT4=
EXTT5=
EXTT6=
EXTT7=
EXTT8=
EXTT9=
EXTT10=
EXTT11=
EXTT12=
PLAYORDER=
